<svg xmlns="http://www.w3.org/2000/svg" viewBox="0 0 147.98 175.239"><defs><style>.cls-1{fill:#bb74ed;}.cls-2{fill:#672feb;}.cls-3{fill:#eb9c78;}</style></defs><title>Icon</title><g id="Layer_2" data-name="Layer 2"><g id="Layer_1-2" data-name="Layer 1"><polygon class="cls-1" points="0 132.403 73.99 175.239 73.99 85.672 0 42.836 0 132.403"/><polygon class="cls-2" points="147.98 132.403 73.99 175.239 73.99 85.672 147.98 42.836 147.98 132.403"/><polygon class="cls-3" points="73.99 0 0 42.836 73.99 85.672 147.98 42.836 73.99 0"/><polygon class="cls-1" points="109.038 65.397 73.99 45.106 73.99 87.532 109.038 107.823 109.038 65.397"/><polygon class="cls-2" points="38.942 65.397 73.99 45.106 73.99 87.532 38.942 107.823 38.942 65.397"/><polygon class="cls-3" points="73.99 128.114 109.038 107.823 73.99 87.532 38.942 107.823 73.99 128.114"/></g></g></svg>